<svg width="256" height="256" viewBox="0 0 256 256" fill="none" xmlns="http://www.w3.org/2000/svg">
  <path d="M252.181 186.892L146.514 9.43399C143.18 3.43399 137.014 0 130.514 0H16.181C6.84799 0 0.847992 9.43399 4.18199 18.1L95.5147 245.767C98.8477 252.767 105.514 256 112.181 256C116.181 256 120.181 254.767 123.514 252.1L243.514 140.767C250.847 135.433 252.847 125.433 252.181 186.892Z" fill="#2D3748"/>
  <path d="M252.181 186.892L146.514 9.43399C143.18 3.43399 137.014 0 130.514 0H16.181C6.84799 0 0.847992 9.43399 4.18199 18.1L95.5147 245.767C98.8477 252.767 105.514 256 112.181 256C116.181 256 120.181 254.767 123.514 252.1L243.514 140.767C250.847 135.433 252.847 125.433 252.181 186.892Z" fill="#0C344B" opacity="0.8"/>
</svg>
